<?xml version="1.0" standalone="no"?>
<!DOCTYPE svg PUBLIC "-//W3C//DTD SVG 20010904//EN"
 "http://www.w3.org/TR/2001/REC-SVG-20010904/DTD/svg10.dtd">
<svg version="1.0" xmlns="http://www.w3.org/2000/svg"
 width="1080.000000pt" height="1080.000000pt" viewBox="0 0 1080.000000 1080.000000"
 preserveAspectRatio="xMidYMid meet">

<g transform="translate(0.000000,1080.000000) scale(0.100000,-0.100000)"
fill="#000000" stroke="none">
<path d="M4920 6250 l0 -300 -115 0 -115 0 0 -100 0 -100 115 0 115 0 0 -418
c0 -340 3 -429 15 -476 39 -149 158 -258 314 -286 68 -12 117 -8 194 16 l47
16 0 79 0 79 -100 0 c-141 0 -195 26 -243 115 -21 39 -22 52 -25 458 l-3 417
185 0 186 0 0 100 0 100 -185 0 -185 0 0 300 0 300 -100 0 -100 0 0 -300z"/>
<path d="M2492 6480 c-117 -72 -82 -238 56 -266 69 -14 152 46 166 120 9 50
-22 119 -66 146 -43 26 -113 26 -156 0z"/>
<path d="M3725 5966 c-274 -54 -478 -239 -561 -511 -25 -84 -25 -286 0 -370
78 -253 266 -436 516 -501 84 -22 252 -22 336 0 228 60 411 223 493 439 l11
27 -108 0 -108 0 -24 -42 c-55 -99 -193 -200 -310 -227 -68 -16 -199 -13 -261
5 -169 50 -295 178 -346 348 -20 66 -20 207 0 274 51 170 177 296 346 346 62
18 193 21 261 5 117 -27 255 -128 310 -226 l24 -43 108 0 108 0 -16 38 c-9 20
-18 44 -22 52 -14 37 -78 128 -125 178 -158 167 -412 250 -632 208z"/>
<path d="M6369 5970 c-223 -35 -425 -183 -523 -381 -54 -110 -76 -200 -76
-319 0 -438 390 -769 820 -696 261 45 473 229 558 483 23 69 26 94 26 213 0
119 -3 144 -27 215 -46 138 -136 267 -244 346 -63 47 -196 111 -264 128 -67
16 -205 21 -270 11z m253 -220 c362 -112 474 -571 203 -836 -102 -100 -208
-144 -350 -144 -224 0 -410 135 -481 350 -24 72 -24 224 -1 298 65 211 256
351 478 352 59 0 108 -6 151 -20z"/>
<path d="M8162 5969 c-120 -20 -208 -66 -304 -157 l-58 -55 0 96 0 97 -100 0
-100 0 0 -680 0 -680 100 0 100 0 0 392 c0 426 4 470 57 564 55 98 166 181
284 213 25 7 83 11 132 9 l87 -3 0 101 0 102 -31 6 c-40 8 -100 6 -167 -5z"/>
<path d="M2466 5953 c-3 -4 -6 -312 -6 -685 l0 -678 110 0 110 0 -2 683 -3
682 -101 2 c-56 1 -105 -1 -108 -4z"/>
<path d="M833 5938 c3 -7 125 -314 272 -681 l267 -668 100 3 100 3 78 195 c43
107 166 412 273 678 l195 483 -111 -3 -110 -3 -208 -553 c-114 -305 -210 -556
-213 -559 -3 -3 -9 5 -14 18 -5 13 -79 209 -165 434 -85 226 -176 467 -203
538 l-48 127 -109 0 c-83 0 -108 -3 -104 -12z"/>
<path d="M8573 5938 c3 -7 59 -146 125 -308 66 -162 150 -369 187 -460 37 -91
112 -274 166 -407 54 -134 99 -249 99 -256 0 -7 -76 -200 -168 -428 l-168
-414 109 -3 c60 -1 111 -1 113 1 7 6 87 205 514 1270 l409 1018 -122 -3 -122
-3 -220 -582 c-121 -320 -222 -584 -225 -586 -3 -3 -109 260 -235 584 l-230
589 -118 0 c-91 0 -118 -3 -114 -12z"/>
<path d="M3243 4379 c-23 -8 -43 -38 -43 -63 0 -21 39 -21 55 0 11 16 14 15
42 -5 24 -18 34 -20 55 -12 49 18 66 81 23 81 -16 0 -25 -6 -25 -15 0 -19 -24
-20 -39 -1 -16 19 -42 25 -68 15z"/>
<path d="M1058 4244 c-35 -18 -58 -62 -58 -108 0 -48 39 -89 114 -118 67 -27
87 -48 70 -75 -17 -26 -79 -22 -109 7 l-24 22 -35 -21 c-34 -21 -35 -24 -21
-45 39 -59 156 -86 223 -52 44 23 62 54 62 107 0 56 -30 99 -82 119 -99 39
-120 58 -97 86 15 19 49 18 78 -2 21 -15 24 -15 52 12 23 22 26 30 17 41 -35
42 -136 57 -190 27z"/>
<path d="M1461 4237 c-24 -12 -57 -42 -75 -66 -28 -39 -31 -49 -31 -121 0 -71
3 -82 30 -121 73 -103 232 -121 323 -36 85 79 85 235 0 314 -60 56 -173 70
-247 30z m178 -93 c56 -47 59 -134 7 -183 -51 -48 -131 -44 -180 10 -26 29
-28 37 -24 87 4 47 10 60 37 84 43 39 115 40 160 2z"/>
<path d="M1870 4050 l0 -210 115 0 115 0 0 40 0 40 -70 0 -70 0 0 170 0 170
-45 0 -45 0 0 -210z"/>
<path d="M2170 4101 c0 -148 2 -160 23 -192 61 -92 234 -95 301 -5 19 25 21
44 24 192 l3 164 -45 0 -46 0 0 -129 c0 -135 -10 -185 -40 -201 -33 -18 -79
-11 -105 15 -24 23 -25 28 -25 170 l0 145 -45 0 -45 0 0 -159z"/>
<path d="M2721 4237 c-99 -52 -140 -180 -91 -282 25 -51 83 -100 131 -110 27
-6 30 -10 24 -35 -4 -20 -2 -29 10 -34 9 -3 20 -4 25 -1 4 3 13 -2 20 -10 10
-12 9 -16 -4 -21 -9 -3 -23 -4 -31 0 -8 3 -22 3 -30 -1 -27 -10 12 -43 51 -43
63 0 84 77 28 102 -31 15 -26 31 13 39 44 9 92 39 120 76 l25 32 -39 19 -38
20 -33 -29 c-27 -24 -41 -29 -83 -29 -45 0 -55 4 -86 35 -34 34 -35 38 -31 92
4 48 10 61 37 85 25 23 41 28 81 28 41 0 55 -5 84 -30 l34 -30 36 21 37 21
-24 31 c-58 75 -180 100 -266 54z"/>
<path d="M3201 4237 c-24 -12 -57 -42 -75 -66 -28 -39 -31 -49 -31 -121 0 -71
3 -82 30 -121 57 -81 169 -113 260 -74 170 70 171 319 3 390 -55 22 -136 19
-187 -8z m178 -93 c56 -47 59 -134 7 -183 -51 -48 -131 -44 -180 10 -26 29
-28 37 -24 87 4 47 10 60 37 84 43 39 115 40 160 2z"/>
<path d="M3617 4253 c-4 -3 -7 -98 -7 -210 l0 -203 130 0 130 0 0 40 0 40 -80
0 -80 0 0 45 0 45 65 0 65 0 0 40 0 40 -65 0 -65 0 0 45 0 45 80 0 80 0 0 40
0 40 -123 0 c-68 0 -127 -3 -130 -7z"/>
<path d="M4008 4244 c-34 -18 -58 -62 -58 -108 0 -49 38 -90 108 -116 67 -25
82 -36 82 -61 0 -43 -73 -48 -117 -7 l-22 20 -35 -21 c-34 -21 -35 -24 -21
-45 39 -59 156 -86 223 -52 44 23 62 54 62 107 0 56 -30 99 -82 119 -99 39
-120 58 -97 86 15 19 49 18 78 -2 21 -15 24 -15 52 12 23 22 26 30 17 41 -35
42 -136 57 -190 27z"/>
<path d="M4517 4253 c-4 -3 -7 -98 -7 -210 l0 -203 130 0 130 0 0 40 0 40 -80
0 -80 0 0 45 0 45 65 0 65 0 0 40 0 40 -65 0 -65 0 0 45 0 45 80 0 80 0 0 40
0 40 -123 0 c-68 0 -127 -3 -130 -7z"/>
<path d="M4860 4051 l0 -211 45 0 44 0 3 123 3 122 55 -123 c53 -118 56 -122
84 -120 26 3 33 13 80 116 l51 114 3 -116 3 -116 49 0 50 0 0 210 0 210 -52 0
-53 -1 -62 -137 c-34 -75 -66 -136 -70 -136 -4 1 -35 62 -69 135 l-61 134 -52
3 -51 3 0 -210z"/>
<path d="M5668 4244 c-34 -18 -58 -62 -58 -108 0 -49 38 -90 108 -116 67 -25
82 -36 82 -61 0 -43 -73 -48 -117 -7 l-22 20 -35 -21 c-34 -21 -35 -24 -21
-45 39 -59 156 -86 223 -52 44 23 62 54 62 107 0 56 -30 99 -82 119 -99 39
-120 58 -97 86 15 19 49 18 78 -2 21 -15 24 -15 52 12 23 22 26 30 17 41 -35
42 -136 57 -190 27z"/>
<path d="M5987 4253 c-4 -3 -7 -98 -7 -210 l0 -203 130 0 130 0 0 40 0 40 -80
0 -80 0 0 45 0 45 65 0 65 0 0 40 0 40 -65 0 -65 0 0 45 0 45 80 0 80 0 0 40
0 40 -123 0 c-68 0 -127 -3 -130 -7z"/>
<path d="M6330 4050 l0 -210 45 0 45 0 0 80 c0 76 1 80 23 80 17 -1 33 -19 71
-80 l49 -80 48 0 c27 0 49 2 49 5 0 3 -22 39 -50 80 -27 41 -50 76 -50 79 0 2
16 20 35 39 30 30 35 42 35 82 0 102 -48 135 -199 135 l-101 0 0 -210z m200
110 c24 -24 24 -29 4 -58 -12 -18 -25 -22 -65 -22 l-49 0 0 43 c0 24 3 47 7
50 15 15 83 7 103 -13z"/>
<path d="M6721 4148 c95 -265 109 -303 109 -305 0 -2 24 -3 53 -3 l53 0 72
203 c40 111 72 205 72 210 0 4 -21 7 -48 7 l-48 0 -48 -147 c-27 -82 -51 -143
-53 -138 -3 6 -26 71 -51 145 l-47 135 -52 3 -53 3 41 -113z"/>
<path d="M7147 4253 c-4 -3 -7 -98 -7 -210 l0 -203 50 0 50 0 0 210 0 210 -43
0 c-24 0 -47 -3 -50 -7z"/>
<path d="M7451 4237 c-99 -52 -140 -180 -91 -282 25 -51 83 -100 131 -110 27
-6 30 -10 24 -35 -4 -20 -2 -29 10 -34 9 -3 20 -4 25 -1 4 3 13 -2 20 -10 10
-12 9 -16 -4 -21 -9 -3 -23 -4 -31 0 -8 3 -22 3 -30 -1 -27 -10 12 -43 51 -43
63 0 84 77 28 102 -31 15 -26 31 13 39 44 9 92 39 120 76 l25 32 -39 19 -38
20 -33 -29 c-27 -24 -41 -29 -83 -29 -45 0 -55 4 -86 35 -34 34 -35 38 -31 92
4 48 10 61 37 85 25 23 41 28 81 28 41 0 55 -5 84 -30 l34 -30 36 21 37 21
-24 31 c-58 75 -180 100 -266 54z"/>
<path d="M7921 4237 c-24 -12 -57 -42 -75 -66 -28 -39 -31 -49 -31 -121 0 -71
3 -82 30 -121 93 -132 293 -118 367 25 40 78 20 194 -44 253 -60 56 -173 70
-247 30z m178 -93 c56 -47 59 -134 7 -183 -51 -48 -131 -44 -180 10 -26 29
-28 37 -24 87 4 47 10 60 37 84 43 39 115 40 160 2z"/>
<path d="M8378 4244 c-34 -18 -58 -62 -58 -108 0 -49 38 -90 108 -116 67 -25
82 -36 82 -61 0 -43 -73 -48 -117 -7 l-22 20 -35 -21 c-34 -21 -35 -24 -21
-45 39 -59 156 -86 223 -52 44 23 62 54 62 107 0 56 -30 99 -82 119 -99 39
-120 58 -97 86 15 19 49 18 78 -2 21 -15 24 -15 52 12 23 22 26 30 17 41 -35
42 -136 57 -190 27z"/>
</g>
</svg>
